<svg width="31" height="31" viewBox="0 0 31 31" fill="none" xmlns="http://www.w3.org/2000/svg">
<g clip-path="url(#clip0_2403_686)" filter="url(#filter0_d_2403_686)">
<path d="M15.4775 0.0898438C17.3942 0.0898438 18.959 0.112305 20.1719 0.157227C21.2051 0.202148 22.126 0.381836 22.9346 0.696289C23.7132 0.995768 24.387 1.43001 24.9561 1.99902C25.5251 2.56803 25.9593 3.24186 26.2588 4.02051C26.5732 4.8291 26.7529 5.75 26.7979 6.7832C26.8428 7.99609 26.8652 9.56087 26.8652 11.4775C26.8652 13.3942 26.8428 14.959 26.7979 16.1719C26.7529 17.2051 26.5732 18.126 26.2588 18.9346C25.9593 19.7132 25.5251 20.387 24.9561 20.9561C24.387 21.5251 23.7132 21.9593 22.9346 22.2588C22.126 22.5732 21.2051 22.7529 20.1719 22.7978C18.959 22.8428 17.3942 22.8652 15.4775 22.8652C13.5609 22.8652 11.9961 22.8428 10.7832 22.7978C9.75 22.7529 8.8291 22.5732 8.02051 22.2588C7.24186 21.9593 6.56803 21.5251 5.99902 20.9561C5.43001 20.387 4.99577 19.7132 4.69629 18.9346C4.38184 18.126 4.20215 17.2051 4.15723 16.1719C4.1123 14.959 4.08984 13.3942 4.08984 11.4775C4.08984 9.56087 4.1123 7.99609 4.15723 6.7832C4.20215 5.75 4.38184 4.8291 4.69629 4.02051C4.99577 3.24186 5.43001 2.56803 5.99902 1.99902C6.56803 1.43001 7.24186 0.995768 8.02051 0.696289C8.8291 0.381836 9.75 0.202148 10.7832 0.157227C11.9961 0.112305 13.5609 0.0898438 15.4775 0.0898438ZM15.4775 1.57227C13.486 1.57227 11.8613 1.59473 10.6035 1.63965C9.79492 1.6696 9.04622 1.81185 8.35742 2.06641C7.2793 2.51562 6.51562 3.2793 6.06641 4.35742C5.81185 5.04622 5.6696 5.79492 5.63965 6.60352C5.59473 7.86133 5.57227 9.486 5.57227 11.4775C5.57227 13.4691 5.59473 15.0937 5.63965 16.3516C5.6696 17.1602 5.81185 17.9089 6.06641 18.5977C6.51562 19.6758 7.2793 20.4395 8.35742 20.8887C9.04622 21.1432 9.79492 21.2855 10.6035 21.3154C11.8613 21.3603 13.486 21.3828 15.4775 21.3828C17.4691 21.3828 19.0938 21.3603 20.3516 21.3154C21.1602 21.2855 21.9089 21.1432 22.5977 20.8887C23.6758 20.4395 24.4395 19.6758 24.8887 18.5977C25.1432 17.9089 25.2855 17.1602 25.3154 16.3516C25.3604 15.0937 25.3828 13.4691 25.3828 11.4775C25.3828 9.486 25.3604 7.86133 25.3154 6.60352C25.2855 5.79492 25.1432 5.04622 24.8887 4.35742C24.4395 3.2793 23.6758 2.51562 22.5977 2.06641C21.9089 1.81185 21.1602 1.6696 20.3516 1.63965C19.0938 1.59473 17.4691 1.57227 15.4775 1.57227ZM15.4775 16.0371C16.7354 16.0371 17.8097 15.5916 18.7007 14.7007C19.5916 13.8097 20.0371 12.7354 20.0371 11.4775C20.0371 10.2197 19.5916 9.14534 18.7007 8.25439C17.8097 7.36344 16.7354 6.91797 15.4775 6.91797C14.2197 6.91797 13.1453 7.36344 12.2544 8.25439C11.3634 9.14534 10.918 10.2197 10.918 11.4775C10.918 12.7354 11.3634 13.8097 12.2544 14.7007C13.1453 15.5916 14.2197 16.0371 15.4775 16.0371ZM15.4775 5.63769C17.0947 5.63769 18.4723 6.20671 19.6104 7.34473C20.7484 8.48275 21.3174 9.86035 21.3174 11.4775C21.3174 13.0947 20.7484 14.4723 19.6104 15.6104C18.4723 16.7484 17.0947 17.3174 15.4775 17.3174C13.8604 17.3174 12.4827 16.7484 11.3447 15.6104C10.2067 14.4723 9.6377 13.0947 9.6377 11.4775C9.6377 9.86035 10.2067 8.48275 11.3447 7.34473C12.4827 6.20671 13.8604 5.63769 15.4775 5.63769ZM22.9346 5.41309C22.9346 5.78743 22.7998 6.10563 22.5303 6.36768C22.2607 6.62972 21.9313 6.76074 21.542 6.76074C21.1676 6.76074 20.8494 6.62972 20.5874 6.36768C20.3254 6.10563 20.1943 5.78743 20.1943 5.41309C20.1943 5.02376 20.3254 4.69434 20.5874 4.4248C20.8494 4.15527 21.1676 4.02051 21.542 4.02051C21.9163 4.02051 22.242 4.15902 22.519 4.43603C22.7961 4.71305 22.9346 5.03874 22.9346 5.41309Z" fill="#666666"/>
</g>
<defs>
<filter id="filter0_d_2403_686" x="0" y="0" width="31" height="31" filterUnits="userSpaceOnUse" color-interpolation-filters="sRGB">
<feFlood flood-opacity="0" result="BackgroundImageFix"/>
<feColorMatrix in="SourceAlpha" type="matrix" values="0 0 0 0 0 0 0 0 0 0 0 0 0 0 0 0 0 0 127 0" result="hardAlpha"/>
<feOffset dy="4"/>
<feGaussianBlur stdDeviation="2"/>
<feComposite in2="hardAlpha" operator="out"/>
<feColorMatrix type="matrix" values="0 0 0 0 0 0 0 0 0 0 0 0 0 0 0 0 0 0 0.25 0"/>
<feBlend mode="normal" in2="BackgroundImageFix" result="effect1_dropShadow_2403_686"/>
<feBlend mode="normal" in="SourceGraphic" in2="effect1_dropShadow_2403_686" result="shape"/>
</filter>
<clipPath id="clip0_2403_686">
<rect width="23" height="23" fill="white" transform="translate(4)"/>
</clipPath>
</defs>
</svg>
